# xmcd
#
# Track frame offsets: 
#        150
#        4981
#        41020
#        62515
#        79512
#        102755
#        123942
#        158032
#        177951
#        200543
#        216749
#
# Disc length: 3466 seconds
#
# Revision: 1
# Processed by: cddbd v1.5.2PL0 Copyright (c) Steve Scherf et al.
# Submitted via: ExactAudioCopy v0.95a3
#
DISCID=900d880b
DTITLE=Alabama 3 - Outlaw - Remixes
DYEAR=2005
DGENRE=Gospel
TTITLE0=Woke Up This Morning (50 Cent Edit)
TTITLE1=M.I.A. (remix)
TTITLE2=I Have Been Set Free (remix)
TTITLE3=Honey In The Rock (remix)
TTITLE4=Adrenaline (remix)
TTITLE5=How Can I Protect You (remix)
TTITLE6=Johnny Cash (Know His Name)
TTITLE7=Let It Slide (remix)
TTITLE8=Minesweeping (remix)
TTITLE9=Terra Firma (remix)
TTITLE10=The Wild Bunch (remix)
EXTD=
EXTT0=
EXTT1=
EXTT2=
EXTT3=
EXTT4=
EXTT5=
EXTT6=
EXTT7=
EXTT8=
EXTT9=
EXTT10=
PLAYORDER=
